<svg width="526" height="152" viewBox="0 0 526 152" fill="none" xmlns="http://www.w3.org/2000/svg">
<path d="M243.157 5.39095C240.572 6.09861 238.018 7.5447 236.08 9.36001L234.295 11.0522L248.449 11.083C260.417 11.083 262.479 11.0215 261.987 10.6523C260.51 9.66768 254.387 6.37552 252.879 5.79093C250.695 4.96019 245.495 4.71405 243.157 5.39095Z" fill="white"/>
<path d="M217.527 15.0829C210.943 15.8828 205.528 20.5596 203.466 27.2362C202.943 28.99 202.912 31.3899 202.912 78.4648C202.912 125.54 202.943 127.94 203.466 129.693C205.251 135.478 209.435 139.662 215.219 141.447C216.973 141.97 218.973 142 252.295 142C285.616 142 287.616 141.97 289.37 141.447C295.185 139.662 299.339 135.508 301.123 129.693C301.646 127.94 301.677 125.54 301.677 78.4648C301.677 31.3899 301.646 28.99 301.123 27.2362C299.339 21.4826 295.339 17.4212 289.524 15.5136C287.924 14.9906 285.801 14.929 253.679 14.8983C234.911 14.8675 218.635 14.9598 217.527 15.0829ZM280.786 21.4211C281.37 21.698 282.047 22.3133 282.324 22.8056C283.37 24.8671 290.755 44.5585 290.755 45.3277C290.755 46.4046 289.524 47.6969 288.509 47.6969C287.37 47.6969 286.293 46.6507 285.678 45.02C284.57 42.0048 284.939 42.1586 279.278 42.1586C276.54 42.1586 274.109 42.2817 273.925 42.4048C273.709 42.5278 273.155 43.6047 272.663 44.7739C271.709 47.143 270.786 47.943 269.463 47.6046C268.448 47.3276 267.74 46.6507 267.494 45.6662C267.248 44.7739 275.401 23.2979 276.417 22.1903C277.617 20.8672 279.063 20.6211 280.786 21.4211ZM256.048 57.3272C258.233 58.3118 260.141 60.2194 261.187 62.4347C261.864 63.9115 261.987 64.5884 261.987 67.0806L262.017 70.0036L263.617 70.219C266.786 70.6805 269.832 72.9573 271.279 75.9726C271.986 77.4187 272.109 78.1263 272.14 80.3108C272.14 82.4954 272.017 83.203 271.34 84.6183C270.202 87.0798 268.848 88.4643 266.509 89.6027C264.756 90.4642 264.14 90.6181 262.14 90.6181C260.879 90.6181 259.402 90.495 258.879 90.3719L257.894 90.1258L258.325 92.3719C259.002 96.0025 258.91 97.0486 257.802 97.9716C256.879 98.7408 256.756 98.7716 252.295 98.7716C247.833 98.7716 247.71 98.7408 246.787 97.9716C245.68 97.0486 245.587 96.0025 246.264 92.4642C246.51 91.2642 246.664 90.2796 246.603 90.2181C246.572 90.1566 245.864 90.2796 245.095 90.495C240.511 91.6334 235.342 89.0797 233.249 84.6491C232.572 83.203 232.449 82.5261 232.449 80.3108C232.48 78.0648 232.603 77.4494 233.372 75.911C233.896 74.8649 234.911 73.5111 235.772 72.7727C237.157 71.5112 239.957 70.1574 241.157 70.1574C241.649 70.1574 241.711 69.8805 241.587 67.4499C241.495 65.2653 241.587 64.4654 242.111 63.0808C244.203 57.481 250.633 54.835 256.048 57.3272ZM217.589 109.848C218.019 110.156 218.604 111.11 218.912 111.909C220.019 114.955 219.65 114.771 225.373 114.771C229.311 114.771 230.511 114.679 230.849 114.34C231.096 114.094 231.588 113.048 231.988 112.002C232.542 110.494 232.911 110.002 233.711 109.633C234.542 109.233 234.88 109.202 235.619 109.51C236.449 109.879 237.218 110.925 237.218 111.786C237.218 112.002 235.342 117.078 233.034 123.078C230.05 130.863 228.603 134.247 227.988 134.862C226.357 136.555 223.342 136.185 222.296 134.155C221.219 132.062 213.835 112.402 213.835 111.602C213.835 110.525 215.066 109.233 216.081 109.233C216.481 109.233 217.158 109.51 217.589 109.848Z" fill="white"/>
<path d="M278.478 29.6052C278.324 30.0052 277.647 31.759 276.94 33.5128C276.263 35.2665 275.771 36.8357 275.863 36.9895C276.078 37.328 282.047 37.2972 282.293 36.9588C282.539 36.5588 279.617 29.1745 279.155 28.9899C278.94 28.9283 278.632 29.2053 278.478 29.6052Z" fill="white"/>
<path d="M222.296 120.001C222.019 120.432 224.973 128.001 225.434 128.001C225.803 128.001 228.942 120.309 228.696 119.909C228.48 119.571 222.511 119.632 222.296 120.001Z" fill="white"/>
<path d="M305.523 60.4962C305.523 84.4028 305.554 85.049 306.077 84.1567C309.338 78.8031 319.03 61.6654 319.646 60.1885C320.753 57.4809 320.938 52.5888 320.046 49.6351C319.246 47.0506 317.615 44.3123 315.769 42.4354C314.6 41.2355 307.708 36.7741 306.015 36.128C305.554 35.9434 305.523 38.0048 305.523 60.4962Z" fill="white"/>
<path d="M192.297 83.48C188.667 89.7874 185.374 95.7564 184.944 96.7717C183.928 99.2639 183.682 104.279 184.451 106.956C185.928 112.063 188.667 115.171 194.882 118.709C197.036 119.971 198.882 120.925 198.943 120.832C199.005 120.771 199.035 109.756 199.005 96.3717L198.912 72.0343L192.297 83.48Z" fill="white"/>
<path d="M244.603 147.416C250.849 151.108 253.279 152 257.218 152C261.525 152 265.402 150.462 268.509 147.569L270.294 145.877H256.141L241.987 145.846L244.603 147.416Z" fill="white"/>
<g filter="url(#filter0_d_208_28)">
<path d="M48.041 121.28C39.849 121.28 32.5957 120.085 26.281 117.696C19.9663 115.307 14.9317 111.552 11.177 106.432C7.50765 101.312 5.50232 94.6987 5.16099 86.592C5.07565 83.0933 5.03299 79.3387 5.03299 75.328C5.03299 71.3173 5.07565 67.4773 5.16099 63.808C5.50232 55.872 7.55032 49.344 11.305 44.224C15.145 39.104 20.2223 35.3067 26.537 32.832C32.937 30.3573 40.105 29.12 48.041 29.12C53.5023 29.12 58.7503 29.76 63.785 31.04C68.905 32.2347 73.513 34.1547 77.609 36.8C81.705 39.4453 84.9477 42.8587 87.337 47.04C89.8117 51.136 91.0917 56.0853 91.177 61.888C91.177 62.656 90.8783 63.3387 90.281 63.936C89.769 64.448 89.129 64.704 88.361 64.704H62.249C60.8837 64.704 59.8597 64.448 59.177 63.936C58.5797 63.3387 58.025 62.3573 57.513 60.992C56.5743 58.2613 55.2943 56.4267 53.673 55.488C52.0517 54.5493 50.1317 54.08 47.913 54.08C45.097 54.08 42.8357 54.848 41.129 56.384C39.5077 57.8347 38.6117 60.5227 38.441 64.448C38.185 71.4453 38.185 78.6133 38.441 85.952C38.6117 89.8773 39.5077 92.608 41.129 94.144C42.8357 95.5947 45.097 96.32 47.913 96.32C50.1317 96.32 52.0517 95.808 53.673 94.784C55.3797 93.76 56.6597 91.968 57.513 89.408C57.9397 87.9573 58.4943 86.976 59.177 86.464C59.8597 85.952 60.8837 85.696 62.249 85.696H88.361C89.129 85.696 89.769 85.9947 90.281 86.592C90.8783 87.104 91.177 87.744 91.177 88.512C91.0917 94.3147 89.8117 99.3067 87.337 103.488C84.9477 107.584 81.705 110.955 77.609 113.6C73.513 116.245 68.905 118.208 63.785 119.488C58.7503 120.683 53.5023 121.28 48.041 121.28ZM56.233 36.288C55.2943 35.8613 54.5263 35.6053 53.929 35.52C53.3317 35.3493 52.6917 35.648 52.009 36.416C51.1557 37.3547 50.601 38.1653 50.345 38.848C50.089 39.4453 50.3023 40.2987 50.985 41.408C51.6677 42.6027 52.3077 43.3707 52.905 43.712C53.5877 43.968 54.569 43.9253 55.849 43.584C57.2997 43.328 58.3237 42.9867 58.921 42.56C59.6037 42.048 60.0303 41.0667 60.201 39.616C60.2863 38.336 59.945 37.6107 59.177 37.44C58.409 37.184 57.4277 36.8 56.233 36.288ZM35.753 41.792C35.497 40.1707 35.3263 38.848 35.241 37.824C35.1557 36.8 34.3023 36.16 32.681 35.904C30.8037 35.5627 29.3957 35.648 28.457 36.16C27.6037 36.672 26.7503 37.7813 25.897 39.488C24.9583 41.1947 24.5743 42.56 24.745 43.584C25.001 44.5227 25.8117 45.632 27.177 46.912C28.3717 48.192 29.3957 48.7467 30.249 48.576C31.1877 48.32 32.425 47.808 33.961 47.04C35.1557 46.3573 35.7957 45.6747 35.881 44.992C35.9663 44.224 35.9237 43.1573 35.753 41.792ZM69.033 37.952C68.777 37.2693 68.4783 36.8427 68.137 36.672C67.7957 36.5013 67.2837 36.4587 66.601 36.544C66.0037 36.6293 65.6623 36.8427 65.577 37.184C65.4917 37.44 65.3637 37.8667 65.193 38.464C65.1077 39.0613 64.9797 39.5307 64.809 39.872C64.7237 40.2133 64.937 40.5547 65.449 40.896C66.0463 41.3227 66.5583 41.5787 66.985 41.664C67.4117 41.664 67.881 41.408 68.393 40.896C68.9903 40.384 69.289 39.9573 69.289 39.616C69.3743 39.1893 69.289 38.6347 69.033 37.952ZM74.153 38.848C73.5557 38.7627 73.0863 38.848 72.745 39.104C72.489 39.2747 72.233 39.616 71.977 40.128C71.6357 40.8107 71.3797 41.3653 71.209 41.792C71.1237 42.1333 71.337 42.56 71.849 43.072C72.2757 43.4987 72.6597 43.584 73.001 43.328C73.3423 42.9867 73.8117 42.688 74.409 42.432C74.921 42.176 75.3477 42.0053 75.689 41.92C76.0303 41.7493 76.1583 41.3653 76.073 40.768C75.9023 39.744 75.2623 39.104 74.153 38.848ZM46.121 39.616L44.841 38.848L43.945 39.744L44.201 40.896L45.353 40.64L46.121 39.616ZM80.809 45.76L79.785 46.4L80.169 47.424L81.193 47.68L81.705 46.528L80.809 45.76ZM63.401 48.448L61.737 48.832L61.993 50.368L63.273 50.88L64.041 49.728L63.401 48.448ZM74.025 48.832C73.4277 48.7467 72.9583 48.704 72.617 48.704C72.2757 48.704 71.977 49.0027 71.721 49.6C71.3797 50.1973 71.1663 50.7093 71.081 51.136C71.081 51.4773 71.337 51.9467 71.849 52.544C72.2757 52.9707 72.6597 53.0987 73.001 52.928C73.4277 52.672 73.9397 52.416 74.537 52.16C75.049 51.904 75.433 51.6907 75.689 51.52C75.945 51.264 76.0303 50.88 75.945 50.368C75.8597 49.7707 75.6463 49.3867 75.305 49.216C75.049 49.0453 74.6223 48.9173 74.025 48.832ZM21.929 49.088L20.265 48.96L20.009 50.88L21.545 51.008L22.697 50.24L21.929 49.088ZM81.193 54.72L80.169 53.568L78.377 54.208L78.761 56.128L80.425 56L81.193 54.72ZM33.833 57.152L32.809 57.536L33.065 58.688L34.217 59.072L34.857 57.792L33.833 57.152ZM84.393 57.92L82.857 57.792L82.345 59.2L83.369 60.096L84.265 59.2L84.393 57.92ZM19.369 59.072C19.113 58.3893 18.6863 58.0907 18.089 58.176C17.577 58.2613 17.2357 58.6453 17.065 59.328C16.9797 59.7547 16.8943 60.096 16.809 60.352C16.809 60.608 16.9797 60.8213 17.321 60.992C17.833 61.248 18.217 61.4187 18.473 61.504C18.8143 61.5893 19.1557 61.4613 19.497 61.12C19.9237 60.7787 20.0517 60.48 19.881 60.224C19.7957 59.968 19.625 59.584 19.369 59.072ZM64.297 58.816L63.273 58.304L63.017 59.456L63.529 60.608L64.681 59.84L64.297 58.816ZM26.793 61.632C26.1103 61.632 25.5557 61.632 25.129 61.632C24.7023 61.5467 24.361 61.8453 24.105 62.528C23.849 63.296 23.8063 63.8507 23.977 64.192C24.233 64.5333 24.6597 64.96 25.257 65.472C25.769 65.8987 26.1957 66.0267 26.537 65.856C26.8783 65.6 27.305 65.2587 27.817 64.832C28.4997 64.4053 28.713 63.7653 28.457 62.912C28.201 62.0587 27.6463 61.632 26.793 61.632ZM12.841 66.368C12.4997 65.6853 12.201 65.1733 11.945 64.832C11.7743 64.4907 11.305 64.3627 10.537 64.448C9.76899 64.5333 9.25699 64.7467 9.00099 65.088C8.74499 65.4293 8.53165 65.984 8.36099 66.752C8.27565 67.4347 8.36099 67.904 8.61699 68.16C8.95832 68.3307 9.42765 68.5867 10.025 68.928C10.6223 69.2693 11.0917 69.5253 11.433 69.696C11.7743 69.7813 12.201 69.6107 12.713 69.184C13.225 68.672 13.4383 68.2453 13.353 67.904C13.2677 67.5627 13.097 67.0507 12.841 66.368ZM30.377 73.536C29.097 73.3653 28.073 73.2373 27.305 73.152C26.6223 73.0667 25.9823 73.5787 25.385 74.688C24.7023 75.968 24.361 76.992 24.361 77.76C24.4463 78.528 25.001 79.4667 26.025 80.576C27.049 81.6 27.945 82.1973 28.713 82.368C29.5663 82.5387 30.6757 82.2827 32.041 81.6C33.321 81.0027 34.0463 80.3627 34.217 79.68C34.473 78.912 34.5157 77.8027 34.345 76.352C34.1743 75.1573 33.7477 74.4747 33.065 74.304C32.4677 74.048 31.5717 73.792 30.377 73.536ZM20.265 78.528C19.497 77.8453 18.8143 77.504 18.217 77.504C17.705 77.4187 17.0223 77.6747 16.169 78.272C15.2303 78.8693 14.5903 79.424 14.249 79.936C13.993 80.3627 13.993 81.1307 14.249 82.24C14.5903 83.52 14.9317 84.5013 15.273 85.184C15.6143 85.7813 16.4677 86.1227 17.833 86.208C19.1983 86.2933 20.0943 86.08 20.521 85.568C21.033 84.9707 21.545 84.032 22.057 82.752C22.4837 81.6427 22.4837 80.832 22.057 80.32C21.7157 79.808 21.1183 79.2107 20.265 78.528ZM13.481 92.608C13.0543 92.2667 12.585 92.2667 12.073 92.608C11.817 92.864 11.6037 93.0773 11.433 93.248C11.2623 93.4187 11.2623 93.6747 11.433 94.016C11.6037 94.6133 12.073 94.912 12.841 94.912C13.4383 94.912 13.865 94.5707 14.121 93.888C14.2063 93.376 13.993 92.9493 13.481 92.608ZM64.297 97.344C63.785 96.2347 63.3157 95.5093 62.889 95.168C62.4623 94.7413 61.6943 94.5707 60.585 94.656C59.305 94.8267 58.409 95.1253 57.897 95.552C57.385 95.8933 57.001 96.6613 56.745 97.856C56.4037 99.136 56.3183 100.117 56.489 100.8C56.745 101.483 57.4703 102.165 58.665 102.848C59.7743 103.531 60.6277 103.744 61.225 103.488C61.9077 103.147 62.7183 102.549 63.657 101.696C64.425 100.928 64.809 100.288 64.809 99.776C64.8943 99.1787 64.7237 98.368 64.297 97.344ZM27.945 98.24C27.2623 98.24 26.793 98.368 26.537 98.624C26.281 98.7947 26.025 99.2213 25.769 99.904C25.513 100.672 25.3423 101.269 25.257 101.696C25.257 102.123 25.5557 102.549 26.153 102.976C26.921 103.573 27.5183 103.957 27.945 104.128C28.457 104.213 29.097 104 29.865 103.488C30.7183 102.976 31.1877 102.464 31.273 101.952C31.3583 101.44 31.273 100.715 31.017 99.776C30.761 98.9227 30.377 98.4533 29.865 98.368C29.4383 98.2827 28.7983 98.24 27.945 98.24ZM76.713 101.568L76.329 99.776L74.281 100.544L74.537 102.592H76.201L76.713 101.568ZM42.921 101.952C42.4943 101.781 42.153 101.611 41.897 101.44C41.641 101.269 41.3423 101.397 41.001 101.824C40.4037 102.507 40.4037 103.232 41.001 104C41.257 104.427 41.513 104.597 41.769 104.512C42.025 104.341 42.3663 104.213 42.793 104.128C43.2197 103.957 43.5183 103.829 43.689 103.744C43.945 103.659 44.073 103.403 44.073 102.976C44.073 102.635 43.9877 102.421 43.817 102.336C43.6463 102.165 43.3477 102.037 42.921 101.952ZM49.705 105.792C48.8517 105.28 48.0837 105.323 47.401 105.92C47.0597 106.261 46.9317 106.603 47.017 106.944C47.1023 107.2 47.273 107.584 47.529 108.096C47.785 108.693 48.2543 108.949 48.937 108.864C49.6197 108.779 50.0463 108.395 50.217 107.712C50.3023 107.2 50.345 106.816 50.345 106.56C50.345 106.304 50.1317 106.048 49.705 105.792ZM66.089 105.408C65.1503 105.323 64.4677 105.493 64.041 105.92C63.6997 106.261 63.3583 106.859 63.017 107.712C62.6757 108.395 62.6757 108.907 63.017 109.248C63.4437 109.504 63.9557 109.888 64.553 110.4C64.9797 110.827 65.3637 111.083 65.705 111.168C66.0463 111.253 66.5157 111.125 67.113 110.784C67.7957 110.357 68.3077 110.016 68.649 109.76C68.9903 109.419 69.033 108.864 68.777 108.096C68.6063 107.157 68.3503 106.517 68.009 106.176C67.6677 105.749 67.0277 105.493 66.089 105.408ZM74.025 106.944C73.6837 106.688 73.385 106.475 73.129 106.304C72.9583 106.133 72.7023 106.176 72.361 106.432C71.849 106.859 71.7637 107.499 72.105 108.352C72.2757 108.864 72.745 109.12 73.513 109.12C74.025 109.12 74.409 109.12 74.665 109.12C74.921 109.035 75.0917 108.779 75.177 108.352C75.3477 107.925 75.305 107.669 75.049 107.584C74.793 107.413 74.4517 107.2 74.025 106.944ZM39.849 112.448C38.9103 112.107 38.1423 112.277 37.545 112.96C37.289 113.387 37.2037 113.728 37.289 113.984C37.4597 114.24 37.673 114.624 37.929 115.136C38.441 115.904 39.0383 116.16 39.721 115.904C40.5743 115.733 41.001 115.179 41.001 114.24C41.001 113.301 40.617 112.704 39.849 112.448ZM60.713 113.472C60.2863 112.789 59.7743 112.491 59.177 112.576C58.5797 112.747 58.1103 112.875 57.769 112.96C57.4277 113.045 57.2143 113.387 57.129 113.984C57.0437 114.667 57.129 115.179 57.385 115.52C57.641 115.776 58.0677 116.032 58.665 116.288C59.3477 116.544 59.8597 116.672 60.201 116.672C60.5423 116.587 60.9263 116.288 61.353 115.776C61.7797 115.349 61.865 115.008 61.609 114.752C61.353 114.411 61.0543 113.984 60.713 113.472ZM104.796 120C103.857 120 103.047 119.659 102.364 118.976C101.681 118.293 101.34 117.483 101.34 116.544V33.856C101.34 32.9173 101.681 32.1067 102.364 31.424C103.047 30.7413 103.857 30.4 104.796 30.4H170.46C171.399 30.4 172.209 30.7413 172.892 31.424C173.575 32.1067 173.916 32.9173 173.916 33.856V51.904C173.916 52.8427 173.575 53.6533 172.892 54.336C172.209 55.0187 171.399 55.36 170.46 55.36H132.06V63.424H167.644C168.583 63.424 169.393 63.7653 170.076 64.448C170.759 65.1307 171.1 65.9413 171.1 66.88V83.52C171.1 84.4587 170.759 85.2693 170.076 85.952C169.393 86.6347 168.583 86.976 167.644 86.976H132.06V95.04H171.484C172.423 95.04 173.233 95.3813 173.916 96.064C174.599 96.7467 174.94 97.5573 174.94 98.496V116.544C174.94 117.483 174.599 118.293 173.916 118.976C173.233 119.659 172.423 120 171.484 120H104.796ZM147.804 35.904C147.463 35.2213 147.036 34.9653 146.524 35.136C146.097 35.3067 145.543 35.4347 144.86 35.52C144.092 35.6053 143.452 35.6053 142.94 35.52C142.428 35.4347 142.129 35.776 142.044 36.544C141.873 37.312 141.959 37.824 142.3 38.08C142.641 38.336 143.196 38.6773 143.964 39.104C144.647 39.4453 145.159 39.744 145.5 40C145.927 40.1707 146.439 40 147.036 39.488C147.719 38.8907 148.103 38.3787 148.188 37.952C148.273 37.44 148.145 36.7573 147.804 35.904ZM111.58 36.672C110.983 36.0747 110.428 35.7333 109.916 35.648C109.489 35.4773 108.892 35.5627 108.124 35.904C107.1 36.416 106.289 36.8427 105.692 37.184C105.095 37.44 104.839 38.1227 104.924 39.232C105.095 40.3413 105.521 40.9387 106.204 41.024C106.887 41.1093 107.783 41.28 108.892 41.536C109.831 41.7067 110.556 41.792 111.068 41.792C111.665 41.792 112.177 41.3653 112.604 40.512C113.116 39.6587 113.244 39.0187 112.988 38.592C112.732 38.08 112.263 37.44 111.58 36.672ZM162.268 37.184C161.671 36.5867 161.116 36.3733 160.604 36.544C160.177 36.6293 159.58 36.8853 158.812 37.312C157.959 37.7387 157.276 38.08 156.764 38.336C156.337 38.5067 156.167 39.0613 156.252 40C156.423 40.9387 156.764 41.4507 157.276 41.536C157.788 41.6213 158.513 41.7493 159.452 41.92C160.305 42.0907 160.988 42.2187 161.5 42.304C162.097 42.3893 162.609 42.0053 163.036 41.152C163.463 40.2987 163.591 39.616 163.42 39.104C163.335 38.592 162.951 37.952 162.268 37.184ZM139.612 38.592C139.612 37.9947 139.527 37.568 139.356 37.312C139.271 37.056 138.972 36.8853 138.46 36.8C137.863 36.6293 137.393 36.5867 137.052 36.672C136.796 36.672 136.497 36.8853 136.156 37.312C135.644 38.1653 135.687 39.0187 136.284 39.872C136.625 40.2987 136.924 40.512 137.18 40.512C137.521 40.4267 137.948 40.2987 138.46 40.128C139.228 39.872 139.612 39.36 139.612 38.592ZM131.932 38.464L131.164 37.824L130.524 38.464V39.488L131.676 39.616L131.932 38.464ZM167.772 39.744L166.62 39.232L165.596 39.616L165.852 40.896H167.132L167.772 39.744ZM126.172 41.024C125.148 40.6827 124.423 40.7253 123.996 41.152C123.655 41.5787 123.185 42.2187 122.588 43.072C121.991 43.9253 121.564 44.608 121.308 45.12C121.052 45.5467 121.223 46.1867 121.82 47.04C122.503 47.8933 123.1 48.448 123.612 48.704C124.209 48.8747 125.02 48.7893 126.044 48.448C127.068 48.1067 127.623 47.68 127.708 47.168C127.793 46.5707 127.836 45.76 127.836 44.736C127.836 43.712 127.793 42.9013 127.708 42.304C127.623 41.7067 127.111 41.28 126.172 41.024ZM115.932 42.688L115.164 43.328L115.42 44.224L116.572 44.608L116.828 43.328L115.932 42.688ZM144.604 45.248C144.263 44.992 143.964 44.9493 143.708 45.12C143.452 45.2907 143.153 45.5467 142.812 45.888C142.471 46.144 142.172 46.3573 141.916 46.528C141.66 46.6133 141.617 46.8693 141.788 47.296C141.959 47.808 142.129 48.192 142.3 48.448C142.471 48.704 142.855 48.832 143.452 48.832C144.305 48.832 144.903 48.3627 145.244 47.424C145.585 46.5707 145.372 45.8453 144.604 45.248ZM159.964 48.192C159.537 48.0213 159.239 48.064 159.068 48.32C158.983 48.576 158.769 48.8747 158.428 49.216C158.172 49.5573 157.959 49.856 157.788 50.112C157.703 50.2827 157.788 50.5387 158.044 50.88C158.385 51.3067 158.94 51.4347 159.708 51.264C160.135 51.0933 160.476 50.9653 160.732 50.88C161.073 50.7947 161.244 50.5387 161.244 50.112C161.329 49.1733 160.903 48.5333 159.964 48.192ZM113.116 52.8C112.519 52.3733 112.049 52.032 111.708 51.776C111.452 51.4347 111.025 51.4773 110.428 51.904C109.745 52.3307 109.319 52.7573 109.148 53.184C108.977 53.6107 109.02 54.208 109.276 54.976C109.447 55.744 109.703 56.2133 110.044 56.384C110.471 56.4693 111.068 56.512 111.836 56.512C112.689 56.512 113.329 56.512 113.756 56.512C114.183 56.4267 114.567 56 114.908 55.232C115.164 54.5493 115.079 54.08 114.652 53.824C114.225 53.568 113.713 53.2267 113.116 52.8ZM120.924 53.824L119.772 54.464L119.644 55.232L120.412 56.128L121.052 55.104L120.924 53.824ZM111.708 62.016C110.769 61.76 110.087 61.8027 109.66 62.144C109.233 62.4 108.721 62.912 108.124 63.68C107.612 64.448 107.313 65.088 107.228 65.6C107.228 66.0267 107.527 66.5813 108.124 67.264C108.636 68.032 109.105 68.5867 109.532 68.928C110.044 69.184 110.769 69.184 111.708 68.928C112.561 68.5867 112.988 68.16 112.988 67.648C113.073 67.136 113.116 66.4107 113.116 65.472C113.116 64.5333 113.073 63.808 112.988 63.296C112.988 62.784 112.561 62.3573 111.708 62.016ZM132.06 70.592C130.951 69.9947 130.055 69.7387 129.372 69.824C128.775 69.9093 128.007 70.336 127.068 71.104C126.129 72.0427 125.532 72.8533 125.276 73.536C125.02 74.1333 125.148 75.0293 125.66 76.224C126.257 77.5893 126.812 78.6133 127.324 79.296C127.921 79.9787 128.988 80.2347 130.524 80.064C132.06 79.8933 132.999 79.4667 133.34 78.784C133.767 78.016 134.151 76.864 134.492 75.328C134.748 74.048 134.663 73.1093 134.236 72.512C133.895 71.9147 133.169 71.2747 132.06 70.592ZM143.708 70.976C143.196 70.3787 142.513 70.2507 141.66 70.592C141.148 70.7627 140.807 70.976 140.636 71.232C140.465 71.4027 140.38 71.744 140.38 72.256C140.465 73.1947 140.977 73.792 141.916 74.048C142.343 74.1333 142.641 74.0907 142.812 73.92C142.983 73.664 143.196 73.3227 143.452 72.896C143.708 72.4693 143.879 72.128 143.964 71.872C144.049 71.616 143.964 71.3173 143.708 70.976ZM115.676 74.688C115.249 74.3467 114.865 74.1333 114.524 74.048C114.268 73.9627 113.927 74.0907 113.5 74.432C112.903 74.7733 112.519 75.1147 112.348 75.456C112.177 75.712 112.177 76.1813 112.348 76.864C112.519 77.4613 112.775 77.888 113.116 78.144C113.457 78.3147 113.969 78.4 114.652 78.4C115.249 78.4 115.676 78.272 115.932 78.016C116.188 77.76 116.401 77.3333 116.572 76.736C116.743 76.224 116.743 75.84 116.572 75.584C116.487 75.328 116.188 75.0293 115.676 74.688ZM148.06 75.2L146.908 74.432L145.756 74.944L146.14 76.352H147.42L148.06 75.2ZM107.228 75.2L105.564 75.456L105.82 77.248L107.356 77.504L108.508 76.352L107.228 75.2ZM142.556 78.912C142.044 78.5707 141.66 78.272 141.404 78.016C141.233 77.6747 140.892 77.6747 140.38 78.016C139.356 78.6987 139.015 79.5947 139.356 80.704C139.441 81.3013 139.655 81.6 139.996 81.6C140.423 81.6 140.935 81.6 141.532 81.6C142.129 81.6 142.556 81.6 142.812 81.6C143.153 81.6 143.409 81.344 143.58 80.832C143.751 80.32 143.708 79.9787 143.452 79.808C143.281 79.552 142.983 79.2533 142.556 78.912ZM116.188 81.088L115.548 81.472L115.292 82.496L116.444 82.752L116.956 81.856L116.188 81.088ZM120.284 85.952C119.687 85.44 119.217 84.9707 118.876 84.544C118.62 84.1173 118.151 84.1173 117.468 84.544C116.785 84.8853 116.529 85.312 116.7 85.824C116.956 86.2507 117.169 86.848 117.34 87.616C117.511 88.2133 117.639 88.6827 117.724 89.024C117.895 89.3653 118.279 89.5787 118.876 89.664C119.644 89.7493 120.199 89.7067 120.54 89.536C120.881 89.3653 121.18 88.9387 121.436 88.256C121.692 87.6587 121.649 87.232 121.308 86.976C121.052 86.72 120.711 86.3787 120.284 85.952ZM110.556 85.952C109.873 85.8667 109.319 85.824 108.892 85.824C108.551 85.824 108.252 86.1653 107.996 86.848C107.484 87.9573 107.655 88.9387 108.508 89.792C109.105 90.304 109.617 90.6453 110.044 90.816C110.471 90.9013 111.025 90.7307 111.708 90.304C112.305 89.9627 112.519 89.5787 112.348 89.152C112.263 88.7253 112.177 88.1707 112.092 87.488C111.921 86.5493 111.409 86.0373 110.556 85.952ZM110.684 95.552C110.684 95.04 110.684 94.6133 110.684 94.272C110.684 93.8453 110.385 93.5893 109.788 93.504C109.276 93.3333 108.935 93.4187 108.764 93.76C108.679 94.1013 108.508 94.528 108.252 95.04C107.911 95.552 107.911 96.0213 108.252 96.448C108.593 96.7893 108.849 97.0453 109.02 97.216C109.191 97.3867 109.489 97.3867 109.916 97.216C110.513 96.96 110.769 96.4053 110.684 95.552ZM118.876 101.056C118.876 100.203 118.748 99.6053 118.492 99.264C118.321 98.8373 117.852 98.496 117.084 98.24C115.975 97.8987 115.121 97.6853 114.524 97.6C113.927 97.5147 113.329 97.9413 112.732 98.88C112.135 99.7333 112.049 100.416 112.476 100.928C112.988 101.355 113.543 101.952 114.14 102.72C114.737 103.403 115.207 103.915 115.548 104.256C115.889 104.597 116.487 104.597 117.34 104.256C118.193 104 118.663 103.659 118.748 103.232C118.833 102.72 118.876 101.995 118.876 101.056ZM152.668 99.392C151.473 98.9653 150.62 99.008 150.108 99.52C149.596 100.032 148.999 100.8 148.316 101.824C147.633 102.848 147.121 103.701 146.78 104.384C146.524 104.981 146.737 105.749 147.42 106.688C148.188 107.712 148.913 108.139 149.596 107.968C150.279 107.712 151.175 107.413 152.284 107.072C153.223 106.731 153.82 106.347 154.076 105.92C154.332 105.493 154.46 104.811 154.46 103.872C154.46 102.592 154.417 101.611 154.332 100.928C154.332 100.245 153.777 99.7333 152.668 99.392ZM126.556 103.616L124.764 103.104L124.508 104.896L125.532 105.664L126.428 105.024L126.556 103.616ZM169.052 106.816C168.881 106.219 168.711 105.749 168.54 105.408C168.369 105.067 167.985 104.896 167.388 104.896C166.62 104.896 166.023 104.981 165.596 105.152C165.255 105.323 164.956 105.749 164.7 106.432C164.444 107.029 164.444 107.499 164.7 107.84C165.041 108.096 165.511 108.437 166.108 108.864C166.705 109.376 167.175 109.845 167.516 110.272C167.943 110.613 168.497 110.571 169.18 110.144C169.863 109.632 170.076 109.163 169.82 108.736C169.564 108.224 169.308 107.584 169.052 106.816ZM133.596 106.176L132.316 106.048L132.188 107.328L133.212 107.968L133.852 107.072L133.596 106.176ZM139.228 114.24H138.204L138.076 115.136L138.972 115.648L139.612 115.008L139.228 114.24ZM332.671 120C331.732 120 330.922 119.701 330.239 119.104C329.556 118.421 329.215 117.568 329.215 116.544V33.856C329.215 32.9173 329.556 32.1067 330.239 31.424C330.922 30.7413 331.732 30.4 332.671 30.4H357.759C358.698 30.4 359.508 30.7413 360.191 31.424C360.874 32.1067 361.215 32.9173 361.215 33.856V60.736H363.263L378.879 33.216C379.306 32.5333 379.903 31.8933 380.671 31.296C381.524 30.6987 382.634 30.4 383.999 30.4H412.287C413.055 30.4 413.695 30.6987 414.207 31.296C414.804 31.808 415.103 32.448 415.103 33.216C415.103 33.728 414.975 34.1973 414.719 34.624L391.679 73.28L416.895 115.776C417.151 116.117 417.279 116.587 417.279 117.184C417.279 117.952 416.98 118.635 416.383 119.232C415.871 119.744 415.231 120 414.463 120H385.279C383.572 120 382.335 119.616 381.567 118.848C380.799 117.995 380.287 117.397 380.031 117.056L364.287 88.896H361.215V116.544C361.215 117.483 360.874 118.293 360.191 118.976C359.508 119.659 358.698 120 357.759 120H332.671ZM336.511 33.856L335.487 33.472L335.359 34.752L336.383 35.648L337.279 34.624L336.511 33.856ZM345.087 39.232C345.087 38.6347 345.002 38.208 344.831 37.952C344.746 37.6107 344.404 37.3547 343.807 37.184C343.21 36.928 342.698 36.8427 342.271 36.928C341.93 36.928 341.588 37.2267 341.247 37.824C340.82 38.336 340.607 38.8053 340.607 39.232C340.692 39.5733 340.906 40.0427 341.247 40.64C341.674 41.0667 342.058 41.28 342.399 41.28C342.74 41.28 343.167 41.152 343.679 40.896C344.618 40.64 345.087 40.0853 345.087 39.232ZM351.487 37.44C350.975 37.0987 350.591 37.0133 350.335 37.184C350.079 37.3547 349.695 37.6533 349.183 38.08C348.756 38.4213 348.458 38.72 348.287 38.976C348.202 39.1467 348.244 39.488 348.415 40C348.586 40.512 348.799 40.8107 349.055 40.896C349.311 40.896 349.695 40.896 350.207 40.896C350.804 40.896 351.274 40.896 351.615 40.896C351.956 40.896 352.212 40.5973 352.383 40C352.724 38.8907 352.426 38.0373 351.487 37.44ZM393.215 40.64C392.874 40.128 392.618 39.744 392.447 39.488C392.276 39.1467 391.892 39.0187 391.295 39.104C390.527 39.2747 389.972 39.4453 389.631 39.616C389.29 39.7867 389.034 40.256 388.863 41.024C388.778 41.7067 388.906 42.1333 389.247 42.304C389.674 42.4747 390.228 42.688 390.911 42.944C391.594 43.3707 392.106 43.712 392.447 43.968C392.874 44.224 393.343 44.096 393.855 43.584C394.367 43.072 394.452 42.6453 394.111 42.304C393.855 41.8773 393.556 41.3227 393.215 40.64ZM334.719 42.944L334.079 42.176L332.671 42.304L333.183 43.712L334.335 43.968L334.719 42.944ZM353.919 42.688L353.151 43.2L353.023 44.096L353.919 44.352L354.303 43.584L353.919 42.688ZM400.383 47.424L399.231 46.912L397.823 47.168L398.591 48.192L399.615 48.448L400.383 47.424ZM393.471 48.448C393.044 47.8507 392.575 47.5947 392.063 47.68C391.295 47.936 390.911 48.3627 390.911 48.96C390.911 49.5573 390.911 50.0267 390.911 50.368C390.911 50.624 391.167 50.8373 391.679 51.008C392.618 51.3493 393.386 51.136 393.983 50.368C394.324 49.9413 394.367 49.6427 394.111 49.472C393.94 49.216 393.727 48.8747 393.471 48.448ZM334.975 52.288L333.567 51.52L332.543 52.8L333.439 54.08L334.719 53.568L334.975 52.288ZM390.655 58.56C390.57 56.768 390.143 55.5307 389.375 54.848C388.692 54.1653 387.711 53.696 386.431 53.44C385.236 53.0987 383.786 52.7147 382.079 52.288C380.031 51.6907 378.452 51.52 377.343 51.776C376.234 52.032 375.082 53.056 373.887 54.848C372.607 56.8107 371.967 58.3893 371.967 59.584C371.967 60.7787 372.692 62.272 374.143 64.064C375.764 66.0267 377.13 67.392 378.239 68.16C379.434 68.928 381.268 68.8427 383.743 67.904C386.388 66.88 388.223 65.8133 389.247 64.704C390.356 63.5093 390.826 61.4613 390.655 58.56ZM349.951 60.608C349.61 60.096 349.098 59.9253 348.415 60.096C347.818 60.2667 347.306 60.352 346.879 60.352C346.452 60.352 346.239 60.6507 346.239 61.248C346.239 61.9307 346.367 62.3573 346.623 62.528C346.964 62.6987 347.476 62.912 348.159 63.168C348.671 63.424 349.098 63.552 349.439 63.552C349.78 63.552 350.164 63.296 350.591 62.784C350.932 62.3573 350.975 62.016 350.719 61.76C350.548 61.504 350.292 61.12 349.951 60.608ZM367.999 64.576H366.719V65.856L367.871 66.496L368.639 65.472L367.999 64.576ZM363.903 68.416L362.623 67.648L361.727 68.544L361.855 69.824L363.263 69.696L363.903 68.416ZM346.239 72.64C346.239 71.616 346.154 70.848 345.983 70.336C345.898 69.824 345.343 69.3973 344.319 69.056C343.21 68.7147 342.314 68.5867 341.631 68.672C341.034 68.672 340.394 69.1413 339.711 70.08C338.943 71.1893 338.559 72.0853 338.559 72.768C338.559 73.4507 338.943 74.304 339.711 75.328C340.564 76.4373 341.29 77.1627 341.887 77.504C342.57 77.76 343.551 77.6747 344.831 77.248C346.026 76.8213 346.538 76.2667 346.367 75.584C346.282 74.816 346.239 73.8347 346.239 72.64ZM380.159 78.272C378.794 77.5893 377.727 77.4613 376.959 77.888C376.276 78.3147 375.38 79.04 374.271 80.064C373.247 81.088 372.564 81.984 372.223 82.752C371.882 83.4347 372.01 84.416 372.607 85.696C373.546 87.5733 374.271 89.0667 374.783 90.176C375.295 91.2853 376.575 91.6693 378.623 91.328C380.756 91.072 382.122 90.432 382.719 89.408C383.402 88.384 383.914 86.7627 384.255 84.544C384.596 82.752 384.426 81.5147 383.743 80.832C383.06 80.064 381.866 79.2107 380.159 78.272ZM351.359 78.272C350.42 78.1013 349.78 78.4 349.439 79.168C349.098 79.8507 348.756 80.4053 348.415 80.832C348.159 81.1733 348.33 81.6427 348.927 82.24C349.524 82.8373 350.036 83.136 350.463 83.136C350.89 83.0507 351.487 82.8373 352.255 82.496C352.852 82.1547 353.108 81.8133 353.023 81.472C352.938 81.0453 352.852 80.4907 352.767 79.808C352.596 78.9547 352.127 78.4427 351.359 78.272ZM366.335 80.576C365.994 79.7227 365.567 79.3387 365.055 79.424C364.543 79.5093 363.903 79.552 363.135 79.552C362.282 79.552 361.556 79.5093 360.959 79.424C360.447 79.3387 360.063 79.7227 359.807 80.576C359.551 81.6 359.466 82.368 359.551 82.88C359.722 83.392 360.234 83.9467 361.087 84.544C361.94 85.1413 362.623 85.3973 363.135 85.312C363.647 85.2267 364.33 84.8853 365.183 84.288C365.951 83.6907 366.378 83.136 366.463 82.624C366.634 82.112 366.591 81.4293 366.335 80.576ZM340.735 83.52C340.308 82.752 339.839 82.4533 339.327 82.624C338.815 82.7947 338.09 83.008 337.151 83.264C336.554 83.3493 336.212 83.5627 336.127 83.904C336.042 84.2453 335.999 84.7147 335.999 85.312C335.999 86.08 335.956 86.6773 335.871 87.104C335.786 87.5307 336.084 87.872 336.767 88.128C337.45 88.4693 337.962 88.512 338.303 88.256C338.644 87.9147 339.071 87.4453 339.583 86.848C340.18 86.1653 340.65 85.6533 340.991 85.312C341.332 84.8853 341.247 84.288 340.735 83.52ZM395.007 86.336L393.855 86.72L394.111 87.872L395.135 88.128L395.391 87.232L395.007 86.336ZM354.303 89.664C353.45 89.0667 352.767 88.9387 352.255 89.28C351.743 89.536 351.103 90.0053 350.335 90.688C349.311 91.456 348.458 92.0533 347.775 92.48C347.178 92.9067 347.135 93.7173 347.647 94.912C348.159 96.192 348.756 96.96 349.439 97.216C350.122 97.3867 351.146 97.4293 352.511 97.344C353.791 97.2587 354.644 96.96 355.071 96.448C355.498 95.936 355.839 95.0827 356.095 93.888C356.351 92.7787 356.351 91.968 356.095 91.456C355.924 90.8587 355.327 90.2613 354.303 89.664ZM336.639 95.68C336.127 95.2533 335.7 94.9973 335.359 94.912C335.018 94.8267 334.548 94.9547 333.951 95.296C333.354 95.6373 333.055 95.9787 333.055 96.32C333.055 96.6613 333.098 97.1733 333.183 97.856C333.354 98.368 333.567 98.7093 333.823 98.88C334.079 99.0507 334.506 99.136 335.103 99.136C335.53 99.136 335.786 99.0507 335.871 98.88C336.042 98.624 336.212 98.2827 336.383 97.856C336.639 97.344 336.852 96.96 337.023 96.704C337.194 96.3627 337.066 96.0213 336.639 95.68ZM391.295 97.472C391.21 96.96 391.039 96.6613 390.783 96.576C390.527 96.4053 390.143 96.2773 389.631 96.192C388.863 96.1067 388.308 96.4053 387.967 97.088C387.626 97.7707 387.711 98.368 388.223 98.88C388.65 99.3067 388.991 99.648 389.247 99.904C389.503 100.075 389.887 100.032 390.399 99.776C390.996 99.52 391.295 99.2213 391.295 98.88C391.38 98.5387 391.38 98.0693 391.295 97.472ZM380.159 98.752C379.903 98.24 379.604 97.9413 379.263 97.856C379.007 97.7707 378.623 97.7707 378.111 97.856C377.514 97.9413 377.087 98.4107 376.831 99.264C376.66 99.9467 376.874 100.459 377.471 100.8C378.154 101.227 378.794 101.227 379.391 100.8C379.732 100.459 379.988 100.16 380.159 99.904C380.33 99.648 380.33 99.264 380.159 98.752ZM344.575 100.672L343.039 99.904L342.271 101.184L342.655 102.336L343.807 102.08L344.575 100.672ZM351.615 105.664C351.103 105.152 350.634 104.896 350.207 104.896C349.866 104.811 349.354 104.939 348.671 105.28C348.074 105.621 347.775 105.963 347.775 106.304C347.775 106.645 347.818 107.157 347.903 107.84C348.074 108.437 348.202 108.907 348.287 109.248C348.458 109.589 348.842 109.803 349.439 109.888C350.122 109.973 350.591 109.888 350.847 109.632C351.103 109.376 351.359 108.949 351.615 108.352C351.956 107.755 352.17 107.285 352.255 106.944C352.34 106.517 352.127 106.091 351.615 105.664ZM395.647 107.2C394.708 107.029 394.026 107.072 393.599 107.328C393.172 107.584 392.746 108.096 392.319 108.864C391.807 109.888 391.423 110.699 391.167 111.296C390.911 111.893 391.21 112.619 392.063 113.472C393.002 114.411 393.812 115.051 394.495 115.392C395.178 115.648 396.116 115.477 397.311 114.88C398.506 114.283 399.188 113.643 399.359 112.96C399.53 112.192 399.53 111.125 399.359 109.76C399.188 108.736 398.804 108.139 398.207 107.968C397.61 107.712 396.756 107.456 395.647 107.2ZM341.375 109.248C340.948 108.48 340.522 107.925 340.095 107.584C339.754 107.157 339.114 107.072 338.175 107.328C337.236 107.499 336.554 107.797 336.127 108.224C335.7 108.565 335.444 109.248 335.359 110.272C335.274 111.296 335.402 111.979 335.743 112.32C336.17 112.661 336.81 113.045 337.663 113.472C338.516 113.813 339.156 113.899 339.583 113.728C340.01 113.557 340.479 113.173 340.991 112.576C341.588 111.979 341.887 111.467 341.887 111.04C341.972 110.528 341.802 109.931 341.375 109.248ZM385.791 110.144C385.279 110.144 384.938 110.272 384.767 110.528C384.596 110.699 384.426 111.04 384.255 111.552C383.999 112.149 383.786 112.619 383.615 112.96C383.53 113.301 383.743 113.685 384.255 114.112C384.852 114.539 385.322 114.752 385.663 114.752C386.09 114.667 386.602 114.453 387.199 114.112C387.711 113.685 387.924 113.301 387.839 112.96C387.754 112.619 387.583 112.149 387.327 111.552C387.242 111.04 387.071 110.699 386.815 110.528C386.644 110.272 386.303 110.144 385.791 110.144ZM427.766 120C426.998 120 426.315 119.744 425.718 119.232C425.206 118.635 424.95 117.952 424.95 117.184C424.95 116.843 424.993 116.544 425.078 116.288L453.622 34.624C453.878 33.6853 454.475 32.7467 455.414 31.808C456.353 30.8693 457.675 30.4 459.382 30.4H487.158C488.865 30.4 490.187 30.8693 491.126 31.808C492.065 32.7467 492.662 33.6853 492.918 34.624L521.462 116.288C521.547 116.544 521.59 116.843 521.59 117.184C521.59 117.952 521.291 118.635 520.694 119.232C520.182 119.744 519.542 120 518.774 120H495.094C493.473 120 492.278 119.659 491.51 118.976C490.827 118.208 490.358 117.483 490.102 116.8L487.03 108.352H459.51L456.438 116.8C456.182 117.483 455.713 118.208 455.03 118.976C454.347 119.659 453.153 120 451.446 120H427.766ZM466.55 38.592C466.038 38.5067 465.611 38.5067 465.27 38.592C465.014 38.592 464.758 38.8053 464.502 39.232C464.161 40.1707 464.331 40.9813 465.014 41.664C465.526 42.0907 465.953 42.3893 466.294 42.56C466.635 42.7307 467.105 42.6453 467.702 42.304C468.299 42.048 468.598 41.7493 468.598 41.408C468.598 40.9813 468.555 40.4267 468.47 39.744C468.385 39.232 468.171 38.9333 467.83 38.848C467.574 38.7627 467.147 38.6773 466.55 38.592ZM480.118 42.048C479.691 41.1093 479.222 40.5547 478.71 40.384C478.198 40.2133 477.473 40.1707 476.534 40.256C475.425 40.3413 474.529 40.4693 473.846 40.64C473.249 40.7253 472.822 41.3227 472.566 42.432C472.225 43.712 472.182 44.6933 472.438 45.376C472.694 45.9733 473.377 46.6133 474.486 47.296C475.595 47.9787 476.491 48.32 477.174 48.32C477.942 48.2347 478.838 47.7653 479.862 46.912C480.715 46.144 481.057 45.4187 480.886 44.736C480.801 44.0533 480.545 43.1573 480.118 42.048ZM457.462 42.944C456.95 42.5173 456.481 42.3893 456.054 42.56C455.713 42.6453 455.286 42.9013 454.774 43.328C454.006 43.84 453.793 44.5653 454.134 45.504C454.305 46.1867 454.475 46.6987 454.646 47.04C454.817 47.3813 455.243 47.552 455.926 47.552C456.694 47.552 457.249 47.4667 457.59 47.296C457.931 47.04 458.23 46.5707 458.486 45.888C458.742 45.12 458.785 44.5653 458.614 44.224C458.443 43.7973 458.059 43.3707 457.462 42.944ZM470.134 49.216C469.707 49.216 469.451 49.344 469.366 49.6C469.366 49.856 469.281 50.1973 469.11 50.624C468.939 50.9653 468.811 51.264 468.726 51.52C468.641 51.6907 468.726 51.904 468.982 52.16C469.494 52.672 470.091 52.7147 470.774 52.288C471.457 51.9467 471.713 51.4347 471.542 50.752C471.286 49.8133 470.817 49.3013 470.134 49.216ZM490.614 54.464C490.358 53.8667 490.059 53.5253 489.718 53.44C489.462 53.2693 488.993 53.2267 488.31 53.312C487.627 53.3973 487.073 53.4827 486.646 53.568C486.219 53.6533 485.921 54.0373 485.75 54.72C485.665 55.488 485.793 56 486.134 56.256C486.475 56.512 486.945 56.8107 487.542 57.152C488.139 57.4933 488.609 57.7493 488.95 57.92C489.377 58.0053 489.846 57.8347 490.358 57.408C490.87 56.896 491.126 56.4693 491.126 56.128C491.126 55.7013 490.955 55.1467 490.614 54.464ZM454.262 55.872C453.665 55.36 453.153 55.104 452.726 55.104C452.299 55.104 451.745 55.3173 451.062 55.744C450.294 56.1707 449.739 56.5973 449.398 57.024C449.057 57.3653 449.014 57.9627 449.27 58.816C449.441 59.7547 449.697 60.3947 450.038 60.736C450.465 61.0773 451.19 61.2907 452.214 61.376C453.067 61.4613 453.665 61.3333 454.006 60.992C454.347 60.5653 454.689 59.968 455.03 59.2C455.371 58.432 455.499 57.8347 455.414 57.408C455.329 56.9813 454.945 56.4693 454.262 55.872ZM466.038 83.392H480.502L473.206 59.584L466.038 83.392ZM492.022 64.576C491.339 64.32 490.785 64.192 490.358 64.192C489.931 64.192 489.505 64.4907 489.078 65.088C488.651 65.6853 488.481 66.1973 488.566 66.624C488.651 66.9653 488.907 67.4347 489.334 68.032C489.846 68.8 490.23 69.3973 490.486 69.824C490.827 70.1653 491.425 70.208 492.278 69.952C493.131 69.696 493.601 69.3547 493.686 68.928C493.857 68.416 493.942 67.6907 493.942 66.752C493.942 66.0693 493.771 65.6 493.43 65.344C493.174 65.088 492.705 64.832 492.022 64.576ZM459.254 70.592C458.742 69.7387 458.23 69.2267 457.718 69.056C457.206 68.8853 456.481 68.928 455.542 69.184C454.603 69.3547 454.006 69.6533 453.75 70.08C453.579 70.5067 453.451 71.1893 453.366 72.128C453.281 72.896 453.409 73.408 453.75 73.664C454.091 73.92 454.603 74.176 455.286 74.432C456.225 74.8587 456.95 75.2853 457.462 75.712C457.974 76.1387 458.614 75.968 459.382 75.2C460.15 74.3467 460.449 73.6213 460.278 73.024C460.193 72.4267 459.851 71.616 459.254 70.592ZM489.718 73.92C489.121 73.664 488.694 73.7067 488.438 74.048C488.182 74.3893 487.841 74.7733 487.414 75.2C486.987 75.6267 486.689 75.968 486.518 76.224C486.433 76.3947 486.518 76.736 486.774 77.248C487.201 78.1013 487.841 78.4853 488.694 78.4C489.291 78.3147 489.633 78.144 489.718 77.888C489.889 77.632 490.017 77.2053 490.102 76.608C490.187 75.9253 490.273 75.4133 490.358 75.072C490.529 74.6453 490.315 74.2613 489.718 73.92ZM498.55 76.352L497.27 76.864L496.63 77.888L497.782 78.656L498.678 77.76L498.55 76.352ZM497.654 83.648C497.398 82.9653 497.185 82.4107 497.014 81.984C496.929 81.5573 496.545 81.3013 495.862 81.216C495.094 81.1307 494.625 81.3013 494.454 81.728C494.283 82.1547 494.07 82.7093 493.814 83.392C493.473 84.2453 493.643 84.9707 494.326 85.568C495.009 86.1653 495.521 86.72 495.862 87.232C496.203 87.6587 496.758 87.6587 497.526 87.232C498.294 86.72 498.55 86.208 498.294 85.696C498.038 85.184 497.825 84.5013 497.654 83.648ZM489.462 81.344L488.31 82.24L488.438 83.392L489.718 83.776L490.102 82.624L489.462 81.344ZM503.542 85.056C502.859 84.544 502.305 84.5013 501.878 84.928C501.451 85.184 501.11 85.44 500.854 85.696C500.683 85.952 500.683 86.2933 500.854 86.72C501.025 87.232 501.238 87.488 501.494 87.488C501.835 87.488 502.262 87.488 502.774 87.488C503.371 87.488 503.841 87.488 504.182 87.488C504.523 87.488 504.737 87.232 504.822 86.72C504.993 86.208 504.907 85.8667 504.566 85.696C504.31 85.5253 503.969 85.312 503.542 85.056ZM461.302 89.664C461.046 88.896 460.79 88.384 460.534 88.128C460.278 87.872 459.766 87.744 458.998 87.744C457.974 87.8293 457.163 87.9147 456.566 88C456.054 88 455.67 88.4693 455.414 89.408C455.073 90.5173 454.987 91.3707 455.158 91.968C455.329 92.5653 455.926 93.2053 456.95 93.888C457.803 94.4 458.443 94.4427 458.87 94.016C459.297 93.504 459.894 92.9493 460.662 92.352C461.174 91.9253 461.473 91.5413 461.558 91.2C461.643 90.7733 461.558 90.2613 461.302 89.664ZM480.246 89.408C479.478 88.9813 478.795 89.024 478.198 89.536C477.686 90.048 477.601 90.688 477.942 91.456C478.113 91.7973 478.283 91.968 478.454 91.968C478.71 91.968 479.051 91.968 479.478 91.968C480.246 91.8827 480.673 91.584 480.758 91.072C480.929 90.2187 480.758 89.664 480.246 89.408ZM489.078 90.56C488.651 90.304 488.31 90.0907 488.054 89.92C487.883 89.664 487.627 89.664 487.286 89.92C486.859 90.2613 486.689 90.56 486.774 90.816C486.859 91.072 486.987 91.456 487.158 91.968C487.414 92.736 487.841 93.12 488.438 93.12C488.865 93.12 489.121 93.0347 489.206 92.864C489.377 92.608 489.547 92.2667 489.718 91.84C489.803 91.4133 489.59 90.9867 489.078 90.56ZM470.134 92.48L469.494 91.328L467.958 91.84L468.214 93.632L469.878 94.144L470.134 92.48ZM450.166 94.016C449.569 93.4187 449.099 92.9493 448.758 92.608C448.502 92.1813 447.99 92.1387 447.222 92.48C446.454 92.9067 445.985 93.3333 445.814 93.76C445.643 94.1867 445.601 94.8693 445.686 95.808C445.857 96.7467 446.027 97.4293 446.198 97.856C446.454 98.2827 447.051 98.624 447.99 98.88C449.014 99.0507 449.825 99.0933 450.422 99.008C451.019 98.8373 451.574 98.2827 452.086 97.344C452.598 96.4907 452.555 95.8933 451.958 95.552C451.361 95.2107 450.763 94.6987 450.166 94.016ZM497.654 95.808C497.398 95.2107 497.185 94.784 497.014 94.528C496.843 94.1867 496.459 94.016 495.862 94.016C495.179 94.1013 494.753 94.3147 494.582 94.656C494.411 94.912 494.241 95.3387 494.07 95.936C493.985 96.448 494.027 96.832 494.198 97.088C494.369 97.344 494.667 97.6 495.094 97.856C495.606 98.1973 495.99 98.4533 496.246 98.624C496.587 98.7093 497.014 98.5813 497.526 98.24C497.953 97.8133 498.123 97.4293 498.038 97.088C498.038 96.7467 497.91 96.32 497.654 95.808ZM478.71 96.32L478.07 95.168L477.174 96.064V96.96L478.326 97.472L478.71 96.32ZM457.59 98.624C456.993 98.112 456.481 97.9413 456.054 98.112C455.713 98.1973 455.201 98.4533 454.518 98.88C454.006 99.2213 453.707 99.5627 453.622 99.904C453.622 100.245 453.707 100.715 453.878 101.312C454.049 102.165 454.646 102.635 455.67 102.72C456.353 102.72 456.865 102.72 457.206 102.72C457.547 102.635 457.846 102.293 458.102 101.696C458.358 100.928 458.486 100.373 458.486 100.032C458.486 99.6053 458.187 99.136 457.59 98.624ZM505.078 103.104C504.225 102.848 503.542 102.763 503.03 102.848C502.603 102.933 502.177 103.36 501.75 104.128C501.153 105.067 500.683 105.835 500.342 106.432C500.001 106.944 500.214 107.627 500.982 108.48C501.665 109.419 502.305 109.803 502.902 109.632C503.585 109.461 504.438 109.163 505.462 108.736C506.571 108.309 507.425 107.968 508.022 107.712C508.619 107.456 508.875 106.731 508.79 105.536C508.705 104.427 508.321 103.829 507.638 103.744C506.955 103.573 506.102 103.36 505.078 103.104ZM448.63 107.968C448.118 106.773 447.478 106.219 446.71 106.304C446.027 106.304 445.046 106.347 443.766 106.432C442.401 106.517 441.291 106.603 440.438 106.688C439.67 106.688 439.115 107.371 438.774 108.736C438.433 110.101 438.518 111.125 439.03 111.808C439.542 112.405 440.395 113.088 441.59 113.856C443.041 114.709 444.15 115.307 444.918 115.648C445.771 115.989 446.795 115.605 447.99 114.496C449.27 113.472 449.825 112.533 449.654 111.68C449.569 110.741 449.227 109.504 448.63 107.968Z" fill="white"/>
</g>
<defs>
<filter id="filter0_d_208_28" x="1.03296" y="29.12" width="524.557" height="100.16" filterUnits="userSpaceOnUse" color-interpolation-filters="sRGB">
<feFlood flood-opacity="0" result="BackgroundImageFix"/>
<feColorMatrix in="SourceAlpha" type="matrix" values="0 0 0 0 0 0 0 0 0 0 0 0 0 0 0 0 0 0 127 0" result="hardAlpha"/>
<feOffset dy="4"/>
<feGaussianBlur stdDeviation="2"/>
<feComposite in2="hardAlpha" operator="out"/>
<feColorMatrix type="matrix" values="0 0 0 0 0 0 0 0 0 0 0 0 0 0 0 0 0 0 0.25 0"/>
<feBlend mode="normal" in2="BackgroundImageFix" result="effect1_dropShadow_208_28"/>
<feBlend mode="normal" in="SourceGraphic" in2="effect1_dropShadow_208_28" result="shape"/>
</filter>
</defs>
</svg>
